<svg xmlns="http://www.w3.org/2000/svg" xmlns:svg="http://www.w3.org/2000/svg" xmlns:xlink="http://www.w3.org/1999/xlink" id="svg8" width="1024" height="1024" version="1.1" viewBox="0 0 270.933 270.933"><defs id="defs2"><linearGradient id="linearGradient2377"><stop id="stop2373" offset="0" style="stop-color:#767676;stop-opacity:.49596775"/><stop style="stop-color:#767676;stop-opacity:.36290324" id="stop2381" offset=".546"/><stop id="stop2375" offset="1" style="stop-color:#767676;stop-opacity:0"/></linearGradient><linearGradient id="linearGradient2335"><stop id="stop2331" offset="0" style="stop-color:#767676;stop-opacity:.50403225"/><stop style="stop-color:#7b7b7b;stop-opacity:.50403225" id="stop2337" offset=".328"/><stop id="stop2333" offset="1" style="stop-color:#818181;stop-opacity:0"/></linearGradient><linearGradient id="linearGradient1580"><stop style="stop-color:#509c7b;stop-opacity:1" id="stop1576" offset="0"/><stop style="stop-color:#004427;stop-opacity:1" id="stop1578" offset="1"/></linearGradient><linearGradient id="linearGradient1582" x1="0" x2="270.933" y1="0" y2="270.933" gradientTransform="scale(3.7795274)" gradientUnits="userSpaceOnUse" xlink:href="#linearGradient1580"/><radialGradient id="radialGradient2329" cx="87.349" cy="103.944" r="53.2" fx="87.349" fy="103.944" gradientTransform="matrix(0.95885739,0.88835217,-0.92685018,1.0004029,92.075461,-81.857672)" gradientUnits="userSpaceOnUse" xlink:href="#linearGradient2335"/><linearGradient id="linearGradient2379" x1="167.747" x2="210.916" y1="155.006" y2="240.638" gradientUnits="userSpaceOnUse" xlink:href="#linearGradient2377"/></defs><metadata id="metadata5"/><g id="layer1"><rect id="rect855" width="224.896" height="238.125" x="23.813" y="15.875" style="fill:#fff;stroke-width:4.24395"/><path style="fill:url(#radialGradient2329);stroke:none;stroke-width:.264583px;stroke-linecap:butt;stroke-linejoin:miter;stroke-opacity:1;fill-opacity:1" id="path1584" d="M 55.482653,139.83985 89.954444,174.47638 161.88275,104.36024 110.57179,52.884531"/><path id="path1584-5" d="m 154.91968,215.94219 34.47179,34.63653 c 53.22118,-6.40268 53.26355,-24.39632 64.70193,-54.03745 l -51.31096,-51.47571" style="fill:url(#linearGradient2379);fill-opacity:1;stroke:none;stroke-width:.264583px;stroke-linecap:butt;stroke-linejoin:miter;stroke-opacity:1"/><path id="rect1574" d="m 0,128 v 768 a 128,128 45 0 0 128,128 H 896 A 128,128 135 0 0 1024,896 V 128 A 128,128 45 0 0 896,0 H 128 A 128,128 135 0 0 0,128 Z M 176.75195,91.978516 h 114.68164 c 36.32639,0 69.27184,6.125398 98.83985,18.375004 29.9904,11.8272 55.96882,28.93311 77.93359,51.32031 21.9648,21.96481 38.8603,47.94321 50.6875,77.93359 11.8272,29.9904 17.74219,63.14821 17.74219,99.47461 0,36.3264 -5.91499,69.69658 -17.74219,100.10938 -11.8272,29.9904 -28.7227,56.1792 -50.6875,78.5664 -21.96477,21.9648 -47.94319,39.07073 -77.93359,51.32031 -29.56801,11.8272 -62.51346,17.74219 -98.83985,17.74219 H 176.75195 c -9.2928,0 -17.10736,-3.1679 -23.44336,-9.5039 -6.336,-6.336 -9.5039,-14.15056 -9.5039,-23.44336 V 124.92578 c 0,-9.7152 3.1679,-17.52976 9.5039,-23.44336 6.336,-6.335996 14.15056,-9.503904 23.44336,-9.503904 z m 32.94532,58.291014 V 528.5293 h 81.73632 c 35.48159,0 66.73788,-8.02693 93.77149,-24.07813 27.456,-16.4736 48.99815,-38.85935 64.62695,-67.16015 15.62878,-28.7232 23.44336,-61.46019 23.44336,-98.20899 0,-37.1712 -7.81458,-69.90623 -23.44336,-98.20703 -15.6288,-28.30078 -37.17095,-50.4781 -64.62695,-66.5293 -27.03361,-16.0512 -58.2899,-24.07617 -93.77149,-24.07617 z m 503.22851,274.23828 c 32.52478,0 60.40277,4.22388 83.63477,12.67188 23.6544,8.448 47.30849,22.38796 70.96289,41.81836 3.3792,2.53437 5.91391,5.27953 7.60351,8.23633 2.112,2.53439 3.38034,5.27952 3.80274,8.23632 0.8448,2.5344 1.26562,5.70231 1.26562,9.50391 0,8.0256 -2.95554,14.78419 -8.86914,20.27539 -5.4912,5.4912 -12.46215,8.44869 -20.91015,8.87109 -8.0256,0.4224 -15.6278,-2.32272 -22.8086,-8.23632 -15.6288,-13.5168 -31.89111,-23.86608 -48.78711,-31.04688 -16.4736,-7.1808 -38.43855,-10.77148 -65.89453,-10.77148 -24.9216,0 -48.36528,5.06943 -70.33008,15.20703 -21.9648,10.1376 -41.39501,24.0756 -58.29101,41.8164 -16.4736,17.7408 -29.35564,38.43935 -38.64844,62.09375 -9.2928,23.232 -13.93945,48.15443 -13.93945,74.76563 0,27.03355 4.64665,52.37685 13.93945,76.03125 9.2928,23.23202 22.17484,43.71818 38.64844,61.45898 16.896,17.7408 36.32621,31.68076 58.29101,41.81836 21.9648,9.7152 45.40848,14.57227 70.33008,14.57227 21.54238,0 41.81817,-3.59069 60.82617,-10.77149 14.17847,-5.54809 27.90479,-12.56511 41.1836,-21.03711 V 727.36914 h -87.4375 c -9.29278,0 -17.10736,-2.74513 -23.44336,-8.23633 -6.336,-5.4912 -9.50391,-12.46215 -9.50391,-20.91015 0,-8.44795 3.16791,-15.41701 9.50391,-20.90821 6.336,-5.4912 14.15058,-8.23633 23.44336,-8.23633 h 118.48437 c 9.7152,0 17.52976,3.16791 23.44336,9.50391 5.9136,5.9136 8.86914,13.72821 8.86914,23.44336 v 151.42969 c 0,4.224 -0.8436,8.44787 -2.5332,12.67187 -1.2672,3.8016 -3.80192,7.39229 -7.60352,10.77149 -22.3872,18.5856 -46.67643,32.52556 -72.86523,41.81836 -26.1888,8.8704 -53.64401,13.30468 -82.36719,13.30468 -34.2144,0 -66.31624,-6.33581 -96.30664,-19.00781 -29.568,-13.0944 -55.54639,-31.04587 -77.93359,-53.85547 -21.9648,-23.232 -39.28308,-50.26636 -51.95508,-81.10156 -12.2496,-30.83522 -18.375,-64.20347 -18.375,-100.10742 0,-35.4816 6.1254,-68.429 18.375,-98.8418 12.672,-30.8352 29.99028,-57.65915 51.95508,-80.46875 22.3872,-23.23197 48.36559,-41.39388 77.93359,-54.48828 29.568,-13.0944 61.66984,-19.64258 96.30664,-19.64258 z" transform="scale(0.26458333)" style="fill:url(#linearGradient1582);fill-opacity:1;stroke-width:15.9797"/></g></svg>