<svg xmlns="http://www.w3.org/2000/svg" xmlns:svg="http://www.w3.org/2000/svg" xmlns:xlink="http://www.w3.org/1999/xlink" id="svg8" width="519.231" height="115.344" version="1.1" viewBox="0 0 137.38 30.518"><defs id="defs2"><linearGradient id="linearGradient1639"><stop style="stop-color:#509c7b;stop-opacity:1" id="stop1635" offset="0"/><stop style="stop-color:#004427;stop-opacity:1" id="stop1637" offset="1"/></linearGradient><linearGradient id="linearGradient1641" x1=".113" x2="137.632" y1="14.815" y2="14.815" gradientUnits="userSpaceOnUse" xlink:href="#linearGradient1639"/></defs><metadata id="metadata5"/><g id="layer1"><g id="g1633" style="fill-opacity:1;fill:url(#linearGradient1641)"><path style="font-style:normal;font-variant:normal;font-weight:700;font-stretch:normal;font-size:38.1px;line-height:1.25;font-family:Comfortaa;-inkscape-font-specification:'Comfortaa Bold';fill:url(#linearGradient1641);fill-opacity:1;stroke:none;stroke-width:.264583" id="path834" d="m 1.9812,30.1371 q -0.8382,0 -1.4097,-0.5715 Q 0,28.9941 0,28.1559 V 2.3622 Q 0,1.4859 0.5715,0.9525 1.143,0.381 1.9812,0.381 h 6.8961 q 3.2766,0 5.9436,1.1049 2.705099,1.0668 4.686299,3.0861 1.9812,1.9812 3.048,4.6863 1.0668,2.7051 1.0668,5.9817 0,3.2766 -1.0668,6.0198 -1.0668,2.7051 -3.048,4.7244 -1.9812,1.9812 -4.686299,3.0861 -2.667,1.0668 -5.9436,1.0668 z m 1.9812,-3.5052 h 4.9149 q 3.2004,0 5.6388,-1.4478 2.476499,-1.4859 3.886199,-4.0386 1.4097,-2.5908 1.4097,-5.9055 0,-3.3528 -1.4097,-5.9055 Q 16.992599,6.7818 14.5161,5.334 12.0777,3.8862 8.8773,3.8862 H 3.9624 Z"/><path style="font-style:normal;font-variant:normal;font-weight:700;font-stretch:normal;font-size:38.1px;line-height:1.25;font-family:Comfortaa;-inkscape-font-specification:'Comfortaa Bold';fill:url(#linearGradient1641);fill-opacity:1;stroke:none;stroke-width:.264583" id="path836" d="m 36.604903,30.2895 q -3.1623,0 -5.6388,-1.3335 -2.4384,-1.3716 -3.8481,-3.7338 -1.3716,-2.4003 -1.3716,-5.4864 0,-3.1242 1.2954,-5.4864 1.3335,-2.4003 3.6576,-3.7338 2.3241,-1.3716 5.334,-1.3716 2.9718,0 5.1054,1.3335 2.1336,1.2954 3.2385,3.6195 1.143,2.286 1.143,5.2959 0,0.7239 -0.4953,1.2192 -0.4953,0.4572 -1.2573,0.4572 h -15.3543 v -3.048 h 15.24 l -1.5621,1.0668 q -0.0381,-1.905 -0.762,-3.3909 -0.7239,-1.524 -2.0574,-2.4003 -1.3335,-0.8763 -3.2385,-0.8763 -2.1717,0 -3.7338,0.9525 -1.524,0.9525 -2.3241,2.6289 -0.8001,1.6383 -0.8001,3.7338 0,2.0955 0.9525,3.7338 0.9525,1.6383 2.6289,2.5908 1.6764,0.9525 3.8481,0.9525 1.1811,0 2.4003,-0.4191 1.2573,-0.4572 2.0193,-1.0287 0.5715,-0.4191 1.2192,-0.4191 0.6858,-0.0381 1.1811,0.381 0.6477,0.5715 0.6858,1.2573 0.0381,0.6858 -0.6096,1.1811 -1.2954,1.0287 -3.2385,1.6764 -1.905,0.6477 -3.6576,0.6477 z"/><path style="font-style:normal;font-variant:normal;font-weight:700;font-stretch:normal;font-size:38.1px;line-height:1.25;font-family:Comfortaa;-inkscape-font-specification:'Comfortaa Bold';fill:url(#linearGradient1641);fill-opacity:1;stroke:none;stroke-width:.264583" id="path838" d="m 55.942105,30.2895 q -2.667,0 -4.953,-0.8001 -2.2479,-0.8382 -3.5052,-2.0955 -0.5715,-0.6096 -0.4953,-1.3716 0.1143,-0.8001 0.762,-1.2954 0.762,-0.6096 1.4859,-0.4953 0.762,0.0762 1.2954,0.6477 0.6477,0.7239 2.0574,1.3716 1.4478,0.6096 3.2004,0.6096 2.2098,0 3.3528,-0.7239 1.1811,-0.7239 1.2192,-1.8669 0.0381,-1.143 -1.1049,-1.9812 -1.1049,-0.8382 -4.0767,-1.3716 -3.8481,-0.762 -5.6007,-2.286 -1.7145,-1.524 -1.7145,-3.7338 0,-1.9431 1.143,-3.2004 1.143,-1.2954 2.9337,-1.905 1.7907,-0.6477 3.7338,-0.6477 2.5146,0 4.4577,0.8001 1.943099,0.8001 3.086099,2.2098 0.5334,0.6096 0.4953,1.2954 -0.0381,0.6477 -0.6477,1.1049 -0.6096,0.4191 -1.4478,0.2667 -0.838199,-0.1524 -1.409699,-0.6858 -0.9525,-0.9144 -2.0574,-1.2573 -1.1049,-0.3429 -2.5527,-0.3429 -1.6764,0 -2.8575,0.5715 -1.143,0.5715 -1.143,1.6764 0,0.6858 0.3429,1.2573 0.381,0.5334 1.4478,0.9906 1.0668,0.4191 3.1242,0.8382 2.8575,0.5715 4.4958,1.4478 1.676399,0.8763 2.400299,2.0574 0.7239,1.143 0.7239,2.667 0,1.7526 -0.9525,3.1623 -0.9144,1.4097 -2.743199,2.2479 -1.7907,0.8382 -4.4958,0.8382 z"/><path style="font-style:normal;font-variant:normal;font-weight:700;font-stretch:normal;font-size:38.1px;line-height:1.25;font-family:Comfortaa;-inkscape-font-specification:'Comfortaa Bold';fill:url(#linearGradient1641);fill-opacity:1;stroke:none;stroke-width:.264583" id="path840" d="m 80.646647,30.5181 q -3.0861,0 -5.7912,-1.143 -2.667,-1.1811 -4.6863,-3.2385 -1.981199,-2.0955 -3.124199,-4.8768 -1.1049,-2.7813 -1.1049,-6.0198 0,-3.2004 1.1049,-5.9436 1.143,-2.7813 3.124199,-4.8387 2.0193,-2.0955 4.6863,-3.2766 Q 77.522447,0 80.646647,0 q 2.9337,0 5.0292,0.762 2.1336,0.762 4.2672,2.5146 0.3048,0.2286 0.4572,0.4953 0.1905,0.2286 0.2286,0.4953 0.0762,0.2286 0.0762,0.5715 0,0.7239 -0.5334,1.2192 -0.4953,0.4953 -1.2573,0.5334 -0.7239,0.0381 -1.3716,-0.4953 -1.4097,-1.2192 -2.9337,-1.8669 -1.4859,-0.6477 -3.9624,-0.6477 -2.2479,0 -4.2291,0.9144 -1.9812,0.9144 -3.5052,2.5146 -1.4859,1.6002 -2.3241,3.7338 -0.8382,2.0955 -0.8382,4.4958 0,2.4384 0.8382,4.572 0.8382,2.0955 2.3241,3.6957 1.524,1.6002 3.5052,2.5146 1.9812,0.8763 4.2291,0.8763 1.9431,0 3.6576,-0.6477 1.7526,-0.6858 3.3528,-1.8669 0.6858,-0.4953 1.3335,-0.4191 0.6858,0.0381 1.143,0.5334 0.4572,0.4572 0.4572,1.2954 0,0.381 -0.1524,0.762 -0.1143,0.3429 -0.4572,0.6477 -2.0193,1.6764 -4.3815,2.5146 -2.3622,0.8001 -4.953,0.8001 z m 9.9441,-4.7244 -3.81,-0.762 v -6.8199 h -5.2578 q -0.8382,0 -1.4097,-0.4953 -0.5715,-0.4953 -0.5715,-1.2573 0,-0.762 0.5715,-1.2573 0.5715,-0.4953 1.4097,-0.4953 h 7.1247 q 0.8763,0 1.4097,0.5715 0.5334,0.5334 0.5334,1.4097 z"/><path style="font-style:normal;font-variant:normal;font-weight:700;font-stretch:normal;font-size:38.1px;line-height:1.25;font-family:Comfortaa;-inkscape-font-specification:'Comfortaa Bold';fill:url(#linearGradient1641);fill-opacity:1;stroke:none;stroke-width:.264583" id="path842" d="m 102.92042,30.2895 q -3.086097,0 -5.448285,-1.3335 -2.362185,-1.3716 -3.733779,-3.7338 -1.333491,-2.4003 -1.333491,-5.4864 0,-3.1242 1.333491,-5.4864 1.371594,-2.4003 3.733779,-3.7338 2.362188,-1.3716 5.448285,-1.3716 3.048,0 5.4102,1.3716 2.3622,1.3335 3.6957,3.7338 1.3716,2.3622 1.3716,5.4864 0,3.0861 -1.3335,5.4864 -1.3335,2.3622 -3.6957,3.7338 -2.3622,1.3335 -5.4483,1.3335 z m 0,-3.429 q 1.9812,0 3.5052,-0.9144 1.524,-0.9144 2.3622,-2.5146 0.8763,-1.6002 0.8763,-3.6957 0,-2.0955 -0.8763,-3.6957 -0.8382,-1.6383 -2.3622,-2.5527 -1.524,-0.9144 -3.5052,-0.9144 -1.9812,0 -3.505194,0.9144 -1.523994,0.9144 -2.400288,2.5527 -0.876294,1.6002 -0.876294,3.6957 0,2.0955 0.876294,3.6957 0.876294,1.6002 2.400288,2.5146 1.523994,0.9144 3.505194,0.9144 z"/><path style="font-style:normal;font-variant:normal;font-weight:700;font-stretch:normal;font-size:38.1px;line-height:1.25;font-family:Comfortaa;-inkscape-font-specification:'Comfortaa Bold';fill:url(#linearGradient1641);fill-opacity:1;stroke:none;stroke-width:.264583" id="path844" d="m 121.52604,30.1371 q -1.6764,0 -2.9718,-0.9144 -1.2954,-0.9144 -2.0193,-2.4765 -0.7239,-1.6002 -0.7239,-3.6576 V 2.286 q 0,-0.8382 0.5334,-1.3716 0.5334,-0.5334 1.3716,-0.5334 0.8382,0 1.3716,0.5334 0.5334,0.5334 0.5334,1.3716 v 20.8026 q 0,1.4097 0.5334,2.3241 0.5334,0.9144 1.3716,0.9144 h 0.9525 q 0.762,0 1.2192,0.5334 0.4953,0.5334 0.4953,1.3716 0,0.8382 -0.7239,1.3716 -0.7239,0.5334 -1.8669,0.5334 z"/><path style="font-style:normal;font-variant:normal;font-weight:700;font-stretch:normal;font-size:38.1px;line-height:1.25;font-family:Comfortaa;-inkscape-font-specification:'Comfortaa Bold';fill:url(#linearGradient1641);fill-opacity:1;stroke:none;stroke-width:.264583" id="path846" d="m 128.69319,30.1371 q -0.7239,0 -1.2954,-0.5334 -0.5715,-0.5334 -0.5715,-1.4097 V 9.4107 q 0,-2.7432 1.0668,-4.7625 1.1049,-2.0193 3.048,-3.1242 1.9431,-1.143 4.4958,-1.143 0.8382,0 1.3716,0.4953 0.5715,0.4953 0.5715,1.2573 0,0.7239 -0.5715,1.2573 -0.5334,0.4953 -1.3716,0.4953 -1.4097,0 -2.4765,0.6477 -1.0668,0.6477 -1.6764,1.7907 -0.5715,1.143 -0.5715,2.7051 V 28.194 q 0,0.8763 -0.5334,1.4097 -0.5334,0.5334 -1.4859,0.5334 z m -3.5052,-16.8021 q -0.8001,0 -1.2954,-0.4572 -0.4953,-0.4572 -0.4953,-1.143 0,-0.762 0.4953,-1.2192 0.4953,-0.4572 1.2954,-0.4572 h 9.4107 q 0.8001,0 1.2954,0.4572 0.4953,0.4572 0.4953,1.2192 0,0.6858 -0.4953,1.143 -0.4953,0.4572 -1.2954,0.4572 z"/></g></g></svg>