<svg version="1" xmlns="http://www.w3.org/2000/svg" width="933.333" height="933.333" viewBox="0 0 700.000000 700.000000"><path d="M79 .7C37.7 5 5.7 36.9.9 78.4.2 84.6 0 174.6.2 357l.3 269.5 2.3 7.9c9.5 32.4 33.6 55.9 65.2 63.3 7.1 1.7 23 1.8 282.5 1.8h275l8.5-2.3c31.4-8.3 54.9-31.8 63.2-63.2l2.3-8.5v-275c0-259.5-.1-275.4-1.8-282.5-7.4-31.6-30.9-55.7-63.3-65.2L626.5.5l-272-.1C204.9.3 80.9.5 79 .7zm156.3 65.1c36.3 7.8 63.6 22.6 86.8 47 33.7 35.4 49 84 43.9 138.7-3.5 36.9-17.3 70-40 96-21.2 24.4-54.6 43.4-87.5 49.9-16 3.1-25.7 3.6-74.3 3.6-46.4 0-49.5-.1-53-1.9-4.4-2.3-8.8-6.4-11-10.6-1.6-2.7-1.7-15.7-2-155.4L98 80.7l2.4-5.2c2.3-5.1 6.7-9.4 11.6-11.4 1.6-.7 21.8-.9 58-.7 52 .3 56.1.4 65.3 2.4zM511 291.5c20.3 2.4 33.3 6.1 49 14 15.7 7.9 36.3 23.2 39.5 29.5 7 13.5-3.2 29.9-18.6 30-6.8 0-10.1-1.5-19.5-9-22.6-17.9-43.4-25-72.9-25-53.7 0-100.6 35.5-118 89.2-4.7 14.4-6.5 26.5-6.5 43.3 0 38.2 12.4 69.5 37.9 95.9 24.7 25.3 56.7 38.2 91 36.3 21.5-1.1 39-6.7 60.8-19.3l3.3-1.9V497h-65.6l-5.3-2.6c-7.6-3.8-10.6-8.7-10.6-17.5 0-6 .3-7.1 3.1-10.6 1.6-2.1 5.2-4.9 8-6.3l4.9-2.5h92l5 2.5c3.2 1.6 6.1 4.1 8 6.8l3 4.4.3 58.1c.2 39.1 0 59.4-.8 61.9-1.9 6.7-17.3 18.6-36.9 28.7-44.6 22.9-104.5 22.9-149.1 0-33.8-17.3-58.7-42.8-75.4-77.3-22.3-45.9-23.3-105.5-2.6-151.9 18-40.3 49.4-71.5 89-88.2 14.9-6.3 27.6-9.4 48.5-11.8 7.8-1 27.2-.6 38.5.8z"/><path d="M144 232v129.2l38.3-.5c40.3-.5 42.9-.7 58.7-5.9 15.4-4.9 32.3-15.4 44.5-27.3 19.1-18.6 31-42 35.9-70.4 2.1-12.2 2.1-37.3.1-50.1-8.3-51.6-43.9-90.2-93.3-101.1-8.7-1.9-13.6-2.2-46.9-2.6l-37.3-.5V232z"/></svg>